PathFileType  4	(X/Y/Z) C:\Users\antoi\Documents\MyRepositories\mobilecap\ResultsAnalysis
DataRate	CameraRate	NumFrames	NumMarkers	Units	OrigDataRate	OrigDataStartFrame	OrigNumFrames
100.0	100.0	4	51	mm	100.0	74	197
Frame#	Time	r_knee			r_shank_antsup			r_ankle			r_calc			r_5meta			r_toe			L_knee			L_shank_antsup			L_ankle			L_calc			L_5meta			L_toe			r_sh2			r_sh3			r_sh4			L_sh2			L_sh3			r_thigh1			r_thigh2			r_thigh3			r_thigh4			r_thigh5			L_thigh1			L_thigh2			L_thigh3			L_thigh4			r.ASIS			r.PSIS			L.ASIS			L.PSIS			C7			R_Shoulder			L_Shoulder			R_Sternum			L_Sternum			R_humerus			R_elbow_med			R_elbow_lat			R_forearm			R_wrist_radius			R_wrist_ulna			L_humerus			L_elbow_med			L_elbow_lat			L_forearm			L_wrist_radius			L_wrist_ulna			R_HJC			L_HJC			R_HJC_reg			L_HJC_reg			
		X1	Y1	Z1	X2	Y2	Z2	X3	Y3	Z3	X4	Y4	Z4	X5	Y5	Z5	X6	Y6	Z6	X7	Y7	Z7	X8	Y8	Z8	X9	Y9	Z9	X10	Y10	Z10	X11	Y11	Z11	X12	Y12	Z12	X13	Y13	Z13	X14	Y14	Z14	X15	Y15	Z15	X16	Y16	Z16	X17	Y17	Z17	X18	Y18	Z18	X19	Y19	Z19	X20	Y20	Z20	X21	Y21	Z21	X22	Y22	Z22	X23	Y23	Z23	X24	Y24	Z24	X25	Y25	Z25	X26	Y26	Z26	X27	Y27	Z27	X28	Y28	Z28	X29	Y29	Z29	X30	Y30	Z30	X31	Y31	Z31	X32	Y32	Z32	X33	Y33	Z33	X34	Y34	Z34	X35	Y35	Z35	X36	Y36	Z36	X37	Y37	Z37	X38	Y38	Z38	X39	Y39	Z39	X40	Y40	Z40	X41	Y41	Z41	X42	Y42	Z42	X43	Y43	Z43	X44	Y44	Z44	X45	Y45	Z45	X46	Y46	Z46	X47	Y47	Z47	X48	Y48	Z48	X49	Y49	Z49	X50	Y50	Z50	X51	Y51	Z51	

74	0.73000000	-463.71571	794.24441	-399.92291	-413.14258	736.80365	-408.70440	-435.03015	389.09050	-386.71081	-501.40465	380.63062	-428.83813	-349.87380	296.47150	-358.68963	-291.63645	313.80280	-407.00877	-462.92947	813.18016	-753.96423	-415.72690	731.07657	-769.14953	-422.34079	413.20459	-770.00302	-480.15164	403.22736	-710.68961	-343.01761	309.51972	-806.18499	-287.32543	332.75047	-768.16026	-420.49059	624.20999	-377.12868	-491.65266	738.45338	-385.78892	-493.56588	626.67477	-373.84711	-504.52461	724.86123	-764.58474	-484.12845	605.09072	-781.45977	-494.83115	1115.46441	-390.27539	-468.17257	1006.11618	-388.65982	-518.81332	970.34977	-363.13407	-604.62517	1086.96909	-383.19548	-572.35624	974.30133	-380.92783	-512.32317	1081.63820	-786.47548	-461.90139	953.69543	-768.80196	-614.68686	1042.39621	-742.63469	-559.03041	913.50773	-744.91074	-494.80824	1269.03236	-441.01618	-673.28878	1322.43436	-521.09003	-489.15752	1264.17079	-688.22052	-678.30858	1332.51593	-618.98615	-545.57662	1740.98435	-582.82476	-468.27630	1706.88271	-424.99635	-478.69454	1701.93641	-743.16595	-414.28482	1651.63263	-552.24792	-418.79283	1650.47102	-597.45067	-534.47593	1645.77930	-316.64932	-701.52807	1494.77452	-277.07605	-683.66265	1551.00518	-219.49902	-551.28093	1513.84229	-213.62774	-431.03694	1472.61105	-222.12295	-432.63577	1447.90196	-196.78013	-515.11650	1634.15564	-834.22151	-691.08746	1469.59405	-861.75058	-664.60728	1516.78426	-925.31702	-563.00266	1480.01493	-904.51443	-433.18585	1411.63553	-879.59008	-438.34460	1397.55920	-911.84130	-576.22060	1195.88601	-465.56538	-572.92611	1198.58928	-671.99265	-563.23361	1189.17848	-479.43733	-571.54849	1205.87810	-641.59703	
75	0.74000000	-447.67292	778.67802	-398.60150	-396.95012	722.03795	-407.16322	-417.00185	374.21325	-384.10853	-483.45866	365.17260	-426.13237	-331.28732	282.54323	-355.42102	-273.20927	299.68707	-404.50004	-452.21592	795.80852	-754.50801	-404.70783	714.16972	-769.80102	-409.28273	396.07637	-772.36270	-467.87804	385.79053	-714.03260	-328.87182	292.71878	-807.37210	-273.82123	316.31609	-768.76044	-403.50961	609.22183	-375.37045	-475.41557	723.24853	-383.77660	-476.67828	611.20949	-371.97888	-493.50563	707.40338	-765.94435	-472.30224	587.78989	-783.16089	-482.50093	1099.42344	-389.68247	-454.66771	990.31873	-387.87639	-504.81128	954.05211	-362.32388	-591.89102	1069.83117	-382.70295	-558.41474	957.32563	-380.04690	-501.01461	1064.40628	-786.81999	-450.83223	936.30140	-769.22813	-603.48777	1025.14214	-743.34649	-548.10886	896.26346	-745.79273	-483.69527	1252.97190	-441.18999	-662.51470	1304.87081	-521.01787	-477.70892	1248.20814	-688.08348	-667.52458	1314.78276	-618.74430	-536.55649	1724.52796	-583.60345	-459.17593	1692.61112	-426.01457	-470.45832	1686.88284	-742.12005	-406.28647	1635.04492	-554.07593	-409.45368	1634.71261	-598.50037	-525.90933	1634.53771	-317.12956	-698.42753	1489.50418	-277.00819	-678.83000	1545.88505	-220.05944	-547.71787	1505.26132	-213.43945	-428.60961	1460.81579	-221.38088	-430.85150	1436.56943	-195.70010	-506.76234	1622.09665	-834.76724	-684.14410	1459.67894	-865.95567	-657.70501	1508.64834	-928.14391	-555.90571	1472.67066	-908.19588	-425.36085	1405.14002	-884.29301	-430.40879	1391.71942	-916.74541	-564.31174	1179.09464	-465.52844	-561.00464	1181.89452	-671.95395	-551.39925	1172.81735	-479.51413	-559.70197	1189.24632	-641.49998	
76	0.75000000	-431.73137	762.19430	-397.29523	-380.99796	705.96691	-405.62305	-399.75077	358.19342	-381.89888	-466.27181	348.73087	-423.76159	-313.63121	267.65564	-352.00986	-255.70547	284.32170	-402.09577	-441.16059	777.63971	-755.15790	-393.26905	696.36462	-770.23524	-396.28039	378.26019	-774.85659	-455.84954	367.22253	-717.70453	-314.62738	275.30641	-808.71291	-260.41707	299.25218	-769.30156	-387.05735	593.26956	-373.48640	-459.48577	707.07988	-381.68122	-460.14431	594.66139	-370.09552	-482.07267	689.20434	-767.34499	-460.16358	569.84479	-785.19712	-470.18152	1082.79176	-388.66810	-441.13332	973.66264	-387.19888	-490.68814	936.85623	-361.60833	-578.95055	1051.69037	-382.17897	-544.23993	939.53095	-379.15314	-489.64565	1046.47128	-787.32237	-439.65952	918.14368	-769.66174	-592.28087	1006.89238	-744.03211	-537.05529	877.99770	-746.45776	-472.36298	1235.88672	-441.47554	-651.70736	1286.12343	-520.86216	-466.63563	1231.04950	-687.94595	-656.87476	1295.88507	-618.33728	-527.67235	1706.99455	-584.25629	-450.42500	1677.71568	-426.97202	-462.20476	1670.81286	-741.29973	-398.63169	1617.83811	-556.59396	-400.21206	1617.60297	-599.07775	-517.37661	1622.21666	-318.08438	-694.70984	1483.07213	-277.27575	-673.64693	1539.44689	-221.11550	-543.83735	1495.57494	-213.64845	-425.95084	1448.03791	-220.89775	-428.86328	1424.26553	-194.85239	-498.67528	1609.24468	-835.17034	-677.23701	1448.67874	-869.86146	-650.86265	1499.35641	-930.50216	-548.86308	1464.32612	-911.60900	-417.84070	1397.84403	-888.76233	-422.54952	1384.94323	-921.42344	-552.26601	1161.25079	-465.39482	-549.31408	1163.98646	-671.82592	-539.39802	1155.28265	-479.59532	-547.97304	1171.47720	-641.30482	
77	0.76000000	-415.98891	744.87805	-395.84284	-365.30229	688.77873	-404.16377	-383.24077	341.13992	-379.88611	-449.80618	331.09008	-421.81912	-296.76517	251.46464	-349.01402	-238.97229	267.87120	-399.45286	-429.93331	758.61396	-755.75502	-381.39758	677.68771	-770.50669	-383.28909	359.66919	-777.42497	-443.82078	347.79707	-721.48878	-300.38289	257.18953	-810.37668	-247.11553	281.14074	-769.76476	-370.95479	576.25752	-371.74832	-443.78400	689.69926	-380.19040	-443.85849	577.20760	-368.25087	-470.23023	670.34195	-768.78145	-447.80267	551.18364	-787.30733	-457.42947	1064.99835	-387.87994	-427.44568	956.20736	-386.31569	-476.55668	918.97340	-360.59448	-565.90648	1032.71125	-381.52668	-529.93411	921.07355	-378.12566	-478.26334	1027.57834	-787.40270	-428.43606	899.17779	-770.11019	-581.13526	987.82630	-744.64823	-525.85380	858.87658	-746.87697	-460.97668	1217.80810	-441.79036	-640.83642	1266.31002	-520.62685	-455.65633	1212.85823	-687.97169	-646.24700	1275.89795	-617.94650	-518.91661	1688.34620	-584.76895	-442.06021	1661.63883	-428.43551	-453.73057	1653.69132	-741.04957	-389.61543	1600.31950	-558.15405	-390.69812	1599.18544	-599.87597	-508.93140	1608.76659	-319.51841	-690.70600	1475.33223	-278.13039	-668.19366	1531.59988	-222.58118	-539.67906	1484.71115	-214.34815	-423.05214	1434.08813	-220.77722	-426.61118	1410.65089	-194.43600	-490.68785	1595.35806	-835.43059	-670.34456	1436.47749	-873.42499	-644.11523	1488.88850	-932.68628	-541.91551	1454.80835	-914.69740	-410.39308	1389.45809	-892.80012	-414.79253	1377.09373	-925.64585	-540.12310	1142.38939	-465.28537	-537.66903	1145.02674	-671.72471	-527.32836	1136.71197	-479.65131	-536.30973	1152.62647	-641.17056	
